<?xml version="1.0" encoding="UTF-8" standalone="no"?>
<svg
   viewBox="0 0 256 256"
   version="1.1"
   id="svg1"
   sodipodi:docname="instant_shout_indicator_stage1.svg"
   inkscape:version="1.4.3 (0d15f75, 2025-12-25)"
   xmlns:inkscape="http://www.inkscape.org/namespaces/inkscape"
   xmlns:sodipodi="http://sodipodi.sourceforge.net/DTD/sodipodi-0.dtd"
   xmlns="http://www.w3.org/2000/svg"
   xmlns:svg="http://www.w3.org/2000/svg">
  <defs
     id="defs1" />
  <sodipodi:namedview
     id="namedview1"
     pagecolor="#ffffff"
     bordercolor="#000000"
     borderopacity="0.25"
     inkscape:showpageshadow="2"
     inkscape:pageopacity="0.0"
     inkscape:pagecheckerboard="0"
     inkscape:deskcolor="#d1d1d1"
     inkscape:zoom="2.2792969"
     inkscape:cx="79.849185"
     inkscape:cy="112.97343"
     inkscape:window-width="2560"
     inkscape:window-height="1369"
     inkscape:window-x="-8"
     inkscape:window-y="-8"
     inkscape:window-maximized="1"
     inkscape:current-layer="svg1" />
  <path
     d="m 117.0317,6.2647811 a 127,121.94324 0 0 1 118.09,166.8126089 l -17.53,-15.86223 a 105,100.81922 0 0 0 -91.65,-129.461484 z m 72.98,22.1418199 -1.04,11.205335 11.05,-3.706306 z m 28.35,26.299413 -4.57,10.350772 11.71,-0.268851 z m 18.59,33.36636 -7.65,8.507221 11.23,3.187816 z m -48.58,-33.83685 9.8,-2.909355 -3.16,9.361785 z m 22.74,29.199166 10.23,0.614517 -6.42,7.681464 z"
     fill="#ffffff"
     fill-rule="evenodd"
     id="path1"
     style="stroke-width:0.979889" />
  <g
     id="g2"
     transform="matrix(1.6933997,0.43597859,-0.41612337,1.6162794,-1884.025,-1450.9924)"
     style="fill:#1a1a1a">
    <g
       id="dragon_runes_black"
       transform="matrix(0.25409626,0,0,0.280838,1292.6285,647.64338)"
       opacity="0.95"
       style="fill:#1a1a1a">
      <g
         transform="matrix(2.0123451,0.53920626,-0.53920626,2.0123451,151.89293,-344.07115)"
         id="g13"
         style="fill:#1a1a1a">
        <path
           d="M 5,6 V 8 L 6,9 H 8 L 9,8 V 6 Z"
           fill="#000000"
           stroke="none"
           id="path11"
           style="fill:#1a1a1a" />
        <path
           d="M 6,-1 4,-3 H 3 v 2 L 1,1 v 1 l -2,2 h -1 l -2,2 h -1 l -2,2 h -1 l -2,2 h -1 v 1 h 2 l 5,-4 h 2 L -1,6 H 0 L 4,2 H 5 L 6,1 Z"
           fill="#000000"
           stroke="none"
           id="path12"
           style="fill:#1a1a1a" />
        <path
           d="M 11,-11 H 6 l -1,1 h -9 l -1,1 h -4 v 1 H 9 l 1,1 h 1 z"
           fill="#000000"
           stroke="none"
           id="path13"
           style="fill:#1a1a1a" />
      </g>
      <g
         transform="matrix(1.8042193,1.0416665,-1.0416665,1.8042193,250.1454,-375.91626)"
         id="g16"
         style="fill:#1a1a1a">
        <path
           d="m 1.0696805,12.195478 -0.99999999,1 v 2 H 3.0696805 l 1,-1 v -1 l -1,-1 z"
           fill="#000000"
           stroke="none"
           id="path14"
           style="fill:#1a1a1a" />
        <path
           d="m 6.6633911,13.454705 v 2 h 1 l 1,1 v 7 h 1 v -4 l 0.9999999,-1 v -2 l 1,-1 v -1 l -1,-1 z"
           fill="#000000"
           stroke="none"
           id="path15"
           style="fill:#1a1a1a" />
        <path
           d="m -6.5830724,10.198373 v 8 h 1 l 1,1 v 13 h 1 v -6 l 1,-1 v -15 z"
           fill="#000000"
           stroke="none"
           id="path16"
           style="fill:#1a1a1a" />
      </g>
      <g
         transform="matrix(1.4731389,1.4731389,-1.4731389,1.4731389,313.26976,-298.71495)"
         id="g19"
         style="fill:#1a1a1a">
        <path
           d="m -5.5,-1 h -2 l -1,1 v 2 l 1,1 h 1 l 2,-2 V 0 Z"
           fill="#000000"
           stroke="none"
           id="path17"
           style="fill:#1a1a1a" />
        <path
           d="m 5.5,0 -2,-2 h -2 v 2 l -1,1 v 1 l -3,3 h -1 l -2,2 h -1 l -2,2 v 1 h 1 l 2,-2 h 1 l 1,-1 h 2 l 4,-4 h 1 l 2,-2 z"
           fill="#000000"
           stroke="none"
           id="path18"
           style="fill:#1a1a1a" />
        <path
           d="m 9.5,-6 v -4 h -8 l -1,1 h -10 v 1 h 14 l 1,1 h 2 l 1,1 z"
           fill="#000000"
           stroke="none"
           id="path19"
           style="fill:#1a1a1a" />
      </g>
      <g
         transform="matrix(1.0416665,1.8042193,-1.8042193,1.0416665,373.87669,-248.45719)"
         id="g22"
         style="fill:#1a1a1a">
        <path
           d="m -10,-2 v 1 h 1 l 2,2 v 10 h 1 V 10 L -5,9 V 4 l 1,-1 v -5 z"
           fill="#000000"
           stroke="none"
           id="path20"
           style="fill:#1a1a1a" />
        <path
           d="m -1,-8 v 1 l 1,1 h 1 l 1,1 -1,1 v 2 l 1,1 h 1 v -2 l 1,-1 v -1 l 1,-1 v -2 z"
           fill="#000000"
           stroke="none"
           id="path21"
           style="fill:#1a1a1a" />
        <path
           d="m 6,-11 v 1 l 1,1 v 2 l 1,1 V 11 H 9 V 4 l 1,-1 v -14 z"
           fill="#000000"
           stroke="none"
           id="path22"
           style="fill:#1a1a1a" />
      </g>
      <g
         transform="matrix(0.53920626,2.0123451,-2.0123451,0.53920626,408.14226,-188.96419)"
         id="g25"
         style="fill:#1a1a1a">
        <path
           d="m -7.5,6.5 h -2 l -1,1 v 2 l 1,1 h 1 l 2,-2 v -1 z"
           fill="#000000"
           stroke="none"
           id="path23"
           style="fill:#1a1a1a" />
        <path
           d="m 10.5,0.5 -2,-2 h -2 v 2 l -6,6 -3,1 -2,2 v 1 h 1 l 2,-2 h 1 l 1,-1 h 2 l 3,-3 h 1 l 3,-3 h 1 z"
           fill="#000000"
           stroke="none"
           id="path24"
           style="fill:#1a1a1a" />
        <path
           d="m -2.5,-10.5 v 1 l 2,2 v 8 h 1 v -2 l 1,-1 v -3 l 1,-1 v -4 z"
           fill="#000000"
           stroke="none"
           id="path25"
           style="fill:#1a1a1a" />
      </g>
      <g
         transform="matrix(0,2.083333,-2.083333,0,422.15798,-131.57344)"
         id="g28"
         style="fill:#1a1a1a">
        <path
           d="m 0.5,0.5 v 8 l -1,1 h -1 v 1 h 5 v -1 l -1,-1 v -3 l -1,-1 v -4 z"
           fill="#000000"
           stroke="none"
           id="path26"
           style="fill:#1a1a1a" />
        <path
           d="m -9.5,-5.5 v 1 h 1 l 2,2 h 1 l 2,-2 v -1 l -1,-1 h -2 l -1,1 z"
           fill="#000000"
           stroke="none"
           id="path27"
           style="fill:#1a1a1a" />
        <path
           d="m 5.5,-10.5 v 1 l 1,1 v 4 l 1,1 v 14 h 1 v -6 l 1,-1 v -13 l -1,-1 z"
           fill="#000000"
           stroke="none"
           id="path28"
           style="fill:#1a1a1a" />
      </g>
      <g
         transform="matrix(2.0123451,-0.53920626,0.53920626,2.0123451,-113.23333,-422.59255)"
         id="g79"
         style="fill:#1a1a1a" />
    </g>
  </g>
</svg>
